<?xml version="1.0" encoding="UTF-8"?>
<!-- Generator: Adobe Illustrator 19.0.0, SVG Export Plug-In . SVG Version: 6.00 Build 0)  -->
<svg enable-background="new 0 0 512 512" version="1.1" viewBox="0 0 512 512" xml:space="preserve" xmlns="http://www.w3.org/2000/svg" xmlns:cc="http://creativecommons.org/ns#" xmlns:dc="http://purl.org/dc/elements/1.1/" xmlns:rdf="http://www.w3.org/1999/02/22-rdf-syntax-ns#"><metadata><rdf:RDF><cc:Work rdf:about=""><dc:format>image/svg+xml</dc:format><dc:type rdf:resource="http://purl.org/dc/dcmitype/StillImage"/><dc:title/></cc:Work></rdf:RDF></metadata>
<path d="m315.78 110.1c9.699-15.128 16.393-37.353 9.299-70.229-0.489-2.264-3.747-2.298-4.241-0.035-2.627 12.04-12.168 31.978-38.125 52.668 11.622 4.835 22.684 10.742 33.067 17.596z" fill="#93603e"/>
<path d="m327.42 76.814c1.214-10.517 0.727-22.731-2.339-36.938-0.489-2.264-3.747-2.298-4.241-0.035-2.627 12.04-12.168 31.978-38.125 52.668 7.271 3.025 14.324 6.469 21.127 10.303 10.688-9.094 18.277-17.965 23.578-25.998z" fill="#7f573c"/><g>
<path d="m207.47 76.342c-118.28 0-209.32 102.45-197.76 218.03 11.511 119.22 125.66 200.98 242 174.42 82.346-18.721 145.24-88.584 153.53-174.42 11.5-116.05-79.832-218.03-197.76-218.03z" fill="#ff8b39"/>
<path d="m30.076 294.38c-11.223-112.24 74.315-212.09 187.58-217.77-3.372-0.169-6.766-0.264-10.184-0.264-118.28 0-209.32 102.45-197.76 218.03 10.378 107.48 104.17 184.49 207.77 179.17-95.256-4.977-177.71-78.789-187.4-179.17z" fill="#ae9330"/>
<path d="m457.34 149.7-27.402 27.402c-0.687 0.687-1.027 1.644-0.935 2.611 11.667 124.16-92.312 228.18-216.51 216.51-0.968-0.091-1.924 0.248-2.611 0.935l-27.402 27.402c-1.366 1.366-1.271 3.63 0.229 4.848 78.04 63.411 192.96 58.799 265.62-13.861s77.271-187.58 13.861-265.62c-1.22-1.498-3.483-1.594-4.85-0.227z" fill="#ffb74b"/>
</g><g fill="#ffa92c">
	<path d="m429.97 177.08c-0.753 0.753-1.052 1.709-0.965 2.64 11.667 124.16-92.312 228.18-216.51 216.51-0.932-0.087-1.888 0.211-2.64 0.965 151.56 47.173 267.25-68.691 220.12-220.12z"/>
	<path d="m196.28 412.31c-0.295-0.239-0.52-0.527-0.708-0.832l-13.093 13.093c-1.366 1.367-1.271 3.63 0.229 4.848 78.04 63.411 192.96 58.799 265.62-13.861 1.267-1.267 2.509-2.551 3.735-3.843-74.159 60.835-181.41 61.031-255.79 0.595z"/>
</g>
<path d="m497 258.18c0.364 4.134 4.024 7.204 8.142 6.824 4.133-0.364 7.188-4.009 6.824-8.142-3.624-41.112-19.256-79.723-45.207-111.66-4.067-5.004-11.532-5.259-15.99-0.803l-27.402 27.402c-2.274 2.275-3.403 5.418-3.102 8.626 2.492 26.525-0.542 52.803-8.569 77.396-5.19-62.342-37.95-116.72-86.2-150.99 9.694-18.782 11.546-41.287 5.667-68.529-0.969-4.494-4.863-7.637-9.469-7.643h-0.014c-4.582 0-8.462 3.119-9.439 7.589-2.287 10.473-9.593 26.523-31.11 44.637-17.276-6.736-35.511-11.154-54.27-13.02-4.133-0.42-7.808 2.604-8.218 6.732-0.411 4.128 2.603 7.807 6.732 8.218 96.133 9.563 172.03 89.798 172.03 190.24 0 5.62-0.254 11.339-0.757 17.026-13.624 24.226-32.707 45.528-55.431 61.826-59.433 42.566-117.2 34.594-130.48 34.807-2.825 0.043-5.499 1.22-7.491 3.212-30.046 30.046-28.684 28.244-29.783 31.105-0.894 2.328-0.939 4.826-0.195 7.152 1.081 3.379 2.384 4.809 14.054 13.14 12.29 8.744 25.395 16.048 39.224 21.849-113.6 12.04-211.53-77.332-211.53-190.12 0-43.805 15.061-84.558 40.374-117.09 32.534-5.435 68.042-0.342 102.87 14.788 0.976 0.424 1.989 0.624 2.989 0.624 2.901 0 5.664-1.691 6.894-4.521 1.653-3.805-0.092-8.23-3.897-9.883-31.519-13.694-63.694-19.725-94.174-17.792 9.407-9.582 19.812-18.187 31.049-25.642 0.469-4e-3 0.942-0.047 1.418-0.142 58.396-11.531 125.2 11.317 178.7 61.121 1.447 1.347 3.284 2.013 5.116 2.013 2.013 0 4.021-0.804 5.501-2.394 2.825-3.037 2.655-7.79-0.381-10.618-46.443-43.23-102.64-67.331-155.99-68.053 17.567-7.05 36.42-11.566 56.129-13.052 4.138-0.312 7.238-3.918 6.926-8.055-0.312-4.138-3.913-7.249-8.055-6.926-107.15 8.079-190.5 97.607-190.5 205.62 0 133.3 125.61 232.74 256.39 200.04 123.57 30.916 244.54-56.285 255.58-181.85 0.363-4.134-2.692-7.778-6.825-8.141-4.126-0.387-7.778 2.692-8.141 6.824-13.083 148.81-186.72 227.66-307.11 134.61l20.838-20.839c153.81 44.905 271.32-72.704 226.45-226.45l20.856-20.856c22.296 28.862 35.746 63.267 38.967 99.802zm-184.15-159.66c-6.79-4.108-13.745-7.696-16.533-8.997 10.96-10.12 18.206-19.774 22.969-28.367 0.86 14.283-1.274 26.65-6.436 37.364zm-40.16 301.66c79.856-16.841 142.29-79.725 159.01-159.01 1.24 94.491-65.799 160.29-159.01 159.01z"/>















</svg>
